<svg width="36" height="36" viewBox="0 0 36 28" fill="none" xmlns="http://www.w3.org/2000/svg">
<g clip-path="url(#clip0_828_109)" transform="scale(-1, 1) translate(-36, 0)">
<path d="M5.86326 7.50033C5.79461 7.5076 5.72491 7.51141 5.65452 7.51141H2.00389C0.897053 7.51141 0 6.61493 0 5.50957V1.86232C0 0.756611 0.8974 -0.139526 2.00389 -0.139526H5.65452C6.76135 -0.139526 7.65841 0.756957 7.65841 1.86232V5.50922C7.65841 5.57954 7.65459 5.64917 7.64731 5.71775C7.71389 6.68525 8.48507 7.4553 9.45355 7.52215C9.52221 7.51488 9.59191 7.51141 9.6623 7.51141H13.3129C13.3833 7.51141 13.453 7.51522 13.5217 7.52215C14.4902 7.4553 15.261 6.68525 15.3279 5.71775C15.321 5.64917 15.3168 5.57954 15.3168 5.50922V1.86232C15.3168 0.756611 16.2142 -0.139526 17.3207 -0.139526H26.3041C27.4109 -0.139526 28.308 0.756957 28.308 1.86232V5.50922C28.308 5.54074 28.3048 5.57123 28.3031 5.6024L28.3236 5.58196C28.3236 6.57302 29.0635 7.38809 30.0223 7.51107H33.9961C35.1029 7.51107 36 8.4072 36 9.51291V13.1595C36 14.2652 35.1026 15.1613 33.9961 15.1613H30.3455C29.2386 15.1613 28.3416 14.2648 28.3416 13.1595V12.0066C28.3204 11.9187 28.3083 11.8272 28.3083 11.7323V9.00163C28.1176 8.172 27.3977 7.54744 26.5215 7.49825C26.45 7.50587 26.3779 7.51037 26.3044 7.51037H17.3214C17.251 7.51037 17.1813 7.50656 17.1127 7.49929C16.1442 7.56614 15.3733 8.33619 15.3064 9.30369C15.3133 9.37227 15.3172 9.4419 15.3172 9.51222V13.1588C15.3172 13.2291 15.3133 13.2987 15.3064 13.3673C15.373 14.3348 16.1442 15.1049 17.1127 15.1717C17.1813 15.1648 17.251 15.161 17.3214 15.161H26.3041C27.4109 15.161 28.308 16.0575 28.308 17.1628V26.1367C28.308 27.2424 27.4106 28.1385 26.3041 28.1385H17.3211C16.2142 28.1385 15.3172 27.242 15.3172 26.1367V17.1639C15.3172 17.0935 15.321 17.0239 15.3283 16.9553C15.2617 15.9878 14.4905 15.2178 13.522 15.1509C13.4534 15.1582 13.3837 15.1617 13.3133 15.1617H9.66265C9.59226 15.1617 9.52256 15.1579 9.4539 15.1509C8.48542 15.2174 7.71458 15.9878 7.64766 16.9553C7.65459 17.0239 7.65875 17.0935 7.65875 17.1639V26.1377C7.65875 27.2434 6.76136 28.1395 5.65486 28.1395H2.00424C0.897396 28.1395 0.000347137 27.2431 0.000347137 26.1377V17.1639C0.000347137 16.0581 0.897743 15.162 2.00424 15.162H5.65486C5.72525 15.162 5.79495 15.1658 5.86361 15.1727C6.83209 15.1062 7.60293 14.3358 7.66985 13.3683C7.66257 13.2998 7.6591 13.2301 7.6591 13.1598V9.51326C7.6591 9.44294 7.66292 9.37331 7.66985 9.30473C7.60327 8.33723 6.83209 7.56718 5.86361 7.50033H5.86326Z" fill="#FB8000"/>
</g>
<defs>
<clipPath id="clip0_828_109">
<rect width="36" height="28.2791" fill="white"/>
</clipPath>
</defs>
</svg>