<svg width="111" height="24" viewBox="0 0 111 24" fill="none" xmlns="http://www.w3.org/2000/svg">
<g clip-path="url(#clip0_828_97)">
<path d="M36.0412 6.81919H39.8376C40.1792 6.81919 40.4554 7.09543 40.4554 7.43694V7.52451C40.4554 7.77289 40.7324 7.91618 40.9386 7.77687C41.9568 7.08508 43.3077 6.58356 45.0487 6.58356C47.6686 6.58356 50.8783 7.92573 50.8783 11.9061V20.3611C50.8783 20.6867 50.6148 20.9502 50.2892 20.9502H46.4625C46.1369 20.9502 45.8734 20.6867 45.8734 20.3611V12.9187C45.8734 11.1522 44.755 10.3514 43.283 10.3514C41.8111 10.3514 40.457 11.4818 40.457 12.7539V20.3611C40.457 20.6867 40.1935 20.9502 39.8679 20.9502H36.0412C35.7156 20.9502 35.4521 20.6867 35.4521 20.3611V7.40988C35.4521 7.08349 35.7164 6.81919 36.0428 6.81919H36.0412Z" fill="#2F6D7C"/>
<path d="M66.4765 6.81915H70.2523C70.5914 6.81915 70.8669 7.09459 70.8669 7.43372V20.3277C70.8669 20.6716 70.5882 20.9502 70.2443 20.9502H66.3109C66.0626 20.9502 65.862 20.7488 65.862 20.5012C65.862 20.1477 65.4727 19.9392 65.1734 20.1271C64.1823 20.748 62.9006 21.1858 61.2989 21.1858C58.679 21.1858 55.4398 19.8436 55.4398 15.8633V7.43372C55.4398 7.09459 55.7153 6.81915 56.0544 6.81915H59.8301C60.1693 6.81915 60.4447 7.09459 60.4447 7.43372V14.8507C60.4447 16.5933 61.5632 17.418 63.0351 17.418C64.5954 17.418 65.8612 16.2876 65.8612 15.0155V7.43372C65.8612 7.09459 66.1366 6.81915 66.4757 6.81915H66.4765Z" fill="#2F6D7C"/>
<path d="M87.0629 6.81916H91.0161C91.4532 6.81916 91.7517 7.26097 91.5877 7.66617L86.3743 20.5649C86.2803 20.7981 86.0542 20.9502 85.8027 20.9502H81.3359C81.0844 20.9502 80.8575 20.7973 80.7644 20.5641L75.578 7.66538C75.4148 7.26018 75.7133 6.81916 76.1495 6.81916H80.1036C80.3639 6.81916 80.5956 6.98235 80.6839 7.22674L82.9925 13.6455C83.1876 14.1884 83.955 14.1892 84.1516 13.647L86.4841 7.22436C86.5725 6.98076 86.8041 6.81836 87.0637 6.81836L87.0629 6.81916Z" fill="#2F6D7C"/>
<path d="M97.2829 6.81915H101.05C101.391 6.81915 101.668 7.09618 101.668 7.4377V20.3316C101.668 20.6732 101.391 20.9502 101.05 20.9502H97.2829C96.9413 20.9502 96.6643 20.6732 96.6643 20.3316V7.4377C96.6643 7.09618 96.9413 6.81915 97.2829 6.81915Z" fill="#2F6D7C"/>
<path d="M101.171 5.03199H97.1619C96.8872 5.03199 96.6643 4.80909 96.6643 4.53445V0.524643C96.6643 0.249999 96.8872 0.0270996 97.1619 0.0270996H101.171C101.446 0.0270996 101.668 0.249999 101.668 0.524643V4.53445C101.668 4.80909 101.446 5.03199 101.171 5.03199Z" fill="#2F6D7C"/>
<path d="M106.954 6.81915H110.721C111.063 6.81915 111.34 7.09618 111.34 7.4377V20.3316C111.34 20.6732 111.063 20.9502 110.721 20.9502H106.954C106.613 20.9502 106.336 20.6732 106.336 20.3316V7.4377C106.336 7.09618 106.613 6.81915 106.954 6.81915Z" fill="#2F6D7C"/>
<path d="M110.842 5.03199H106.833C106.559 5.03199 106.336 4.80909 106.336 4.53445V0.524643C106.336 0.249999 106.559 0.0270996 106.833 0.0270996H110.842C111.117 0.0270996 111.34 0.249999 111.34 0.524643V4.53445C111.34 4.80909 111.117 5.03199 110.842 5.03199Z" fill="#2F6D7C"/>
<path d="M25.4925 6.49596C25.5507 6.50233 25.6096 6.50552 25.6693 6.50552H28.7572C29.6934 6.50552 30.4521 5.74686 30.4521 4.81068V1.72193C30.4521 0.785754 29.6934 0.0270996 28.7572 0.0270996H25.6693C24.7331 0.0270996 23.9744 0.785754 23.9744 1.72193V4.80989C23.9744 4.86959 23.9776 4.9285 23.984 4.98661C23.9275 5.80577 23.2755 6.45775 22.4563 6.51427C22.3982 6.5079 22.3393 6.50472 22.2796 6.50472H19.1917C19.1319 6.50472 19.073 6.5079 19.0149 6.51427C18.1958 6.45775 17.5438 5.80577 17.4873 4.98661C17.4936 4.9285 17.4968 4.86959 17.4968 4.80989V1.72193C17.4968 0.785754 16.7382 0.0270996 15.802 0.0270996H8.20191C7.26573 0.0270996 6.50707 0.785754 6.50707 1.72193V4.80989C6.50707 4.83695 6.50946 4.86243 6.51106 4.8887L6.49354 4.87118C6.49354 5.71024 5.86783 6.40044 5.05664 6.50472H1.69483C0.758655 6.50472 0 7.26338 0 8.19955V11.2875C0 12.2237 0.758655 12.9823 1.69483 12.9823H4.78279C5.71897 12.9823 6.47762 12.2237 6.47762 11.2875V10.3115C6.49513 10.2367 6.50628 10.1595 6.50628 10.0791V7.76649C6.66788 7.06436 7.27608 6.53497 8.01802 6.49358C8.07852 6.49994 8.13981 6.50392 8.20191 6.50392H15.8004C15.8601 6.50392 15.919 6.50074 15.9771 6.49437C16.7963 6.55089 17.4483 7.20287 17.5048 8.02203C17.4984 8.08014 17.4952 8.13905 17.4952 8.19876V11.2867C17.4952 11.3464 17.4984 11.4053 17.5048 11.4634C17.4483 12.2826 16.7963 12.9346 15.9771 12.9911C15.919 12.9855 15.8601 12.9815 15.8004 12.9815H8.20191C7.26573 12.9815 6.50707 13.7402 6.50707 14.6764V22.2749C6.50707 23.211 7.26573 23.9697 8.20191 23.9697H15.8004C16.7366 23.9697 17.4952 23.211 17.4952 22.2749V14.6764C17.4952 14.6167 17.492 14.5578 17.4857 14.4997C17.5422 13.6805 18.1942 13.0285 19.0133 12.972C19.0714 12.9784 19.1304 12.9815 19.1901 12.9815H22.278C22.3377 12.9815 22.3966 12.9784 22.4547 12.972C23.2739 13.0285 23.9259 13.6805 23.9824 14.4997C23.976 14.5578 23.9728 14.6167 23.9728 14.6764V22.2749C23.9728 23.211 24.7315 23.9697 25.6677 23.9697H28.7556C29.6918 23.9697 30.4505 23.211 30.4505 22.2749V14.6764C30.4505 13.7402 29.6918 12.9815 28.7556 12.9815H25.6677C25.608 12.9815 25.5491 12.9847 25.491 12.9911C24.6718 12.9346 24.0198 12.2826 23.9633 11.4634C23.9697 11.4053 23.9728 11.3464 23.9728 11.2867V8.19876C23.9728 8.13905 23.9697 8.08014 23.9633 8.02203C24.0198 7.20287 24.6718 6.55089 25.491 6.49437L25.4925 6.49596Z" fill="#FB8000"/>
</g>
<defs>
<clipPath id="clip0_828_97">
<rect width="111" height="23.9458" fill="white" transform="translate(0 0.0270996)"/>
</clipPath>
</defs>
</svg>
